# xmcd
# 
# Track frame offsets:
#     150
#     16936
#     64869
#     91152
#     122539
#     158315
#     187838
#     202535
#     261609
#     279859
#     315391
# 
# Disc length: 4426
# 
# Revision: 2
# Processed by: cddbd v1.5.2PL0 Copyright (c) Steve Scherf et al.
# Submitted via: fre:ac v1.0.27
# 
DISCID=7b11480b
DTITLE=Jimi Hendrix Experience - Jimi Hendrix Experience
DYEAR=2013
DGENRE=Rock
TTITLE0=Stone Free
TTITLE1=Like A Rolling Stone [Live]
TTITLE2=Spanish Castle Magic
TTITLE3=Hear My Train A Comin'
TTITLE4=Room Full Of Mirrors
TTITLE5=I Don't Live Today [Live]
TTITLE6=Little Wing [Live]
TTITLE7=Red House [Live]
TTITLE8=Purple Haze [Live]
TTITLE9=Voodoo Child (Slight Return) [Live]
TTITLE10=Izabella
EXTD=
EXTT0=
EXTT1=
EXTT2=
EXTT3=
EXTT4=
EXTT5=
EXTT6=
EXTT7=
EXTT8=
EXTT9=
EXTT10=
PLAYORDER=
